<svg width="288" height="205" viewBox="0 0 288 205" fill="none" xmlns="http://www.w3.org/2000/svg">
<path d="M31.9 137.71H42.19V170.6C42.19 183.6 33 191.78 21.06 191.78C9.12 191.78 0 183.57 0 170.6V137.71H10.29V170.71C10.29 177.64 14.94 181.71 21.06 181.71C27.18 181.71 31.9 177.61 31.9 170.71V137.71ZM68.62 152.92C64.62 152.92 60.27 154.64 58.03 158.44V153.89H48.41V190.59H58.33V169.48C58.33 165.23 60.87 161.87 65.19 161.87C69.97 161.87 71.98 165.08 71.98 169.18V190.59H81.9V167.47C81.9 159.41 77.72 152.92 68.62 152.92V152.92ZM105 168.36L99.55 167.24C97.48 166.82 96.19 165.75 96.19 163.96C96.19 161.87 98.06 160.31 100.67 160.31C104.33 160.31 105.78 162.2 106.14 164.41H114.69C114.62 159.41 110.63 152.78 100.82 152.78C92.91 152.78 87.09 158.22 87.09 164.78C87.09 169.93 90.3 174.18 97.39 175.78L102.46 176.9C105.3 177.5 106.46 178.84 106.46 180.48C106.46 182.42 104.66 184.14 101.38 184.14C97.38 184.14 95.27 181.89 94.77 179.28H85.93C86.42 184.76 90.4 191.74 101.43 191.74C111.05 191.74 115.91 185.63 115.91 179.66C115.91 174.25 112.25 169.85 105 168.36V168.36ZM158.09 172.17C158.09 183.28 151.16 191.48 140.79 191.48C135.72 191.48 131.99 189.48 130.2 187.01V204.76H120.3V153.89H129.92V158.44C131.56 155.61 135.67 153.07 141.18 153.07C151.92 153.07 158.11 161.28 158.11 172.17H158.09ZM148.32 172.24C148.32 165.75 144.32 161.95 139.23 161.95C134.14 161.95 130.05 165.75 130.05 172.24C130.05 178.73 134.15 182.61 139.23 182.61C144.31 182.61 148.34 178.8 148.34 172.24H148.32ZM205.45 153.89H215.07V190.59H205.15V186.12C203.46 189.07 199.64 191.48 194.56 191.48C184.2 191.48 177.26 183.28 177.26 172.17C177.26 161.28 183.45 153.07 194.19 153.07C199.71 153.07 203.7 155.63 205.45 158.44V153.89ZM205.3 172.24C205.3 165.75 201.2 161.95 196.13 161.95C191.06 161.95 187.03 165.75 187.03 172.24C187.03 178.73 191.03 182.61 196.13 182.61C201.23 182.61 205.32 178.73 205.32 172.24H205.3ZM162.72 190.59H172.64V137.71H162.72V190.59ZM274 152.93C270.49 152.93 266.47 154.11 264.08 156.93V137.71H254.16V190.57H264V169C264.22 165 266.69 161.84 270.86 161.84C275.64 161.84 277.65 165.06 277.65 169.16V190.56H287.57V167.44C287.6 159.42 283.28 152.93 274 152.93V152.93ZM238.7 168.36L233.24 167.24C231.17 166.82 229.89 165.75 229.89 163.96C229.89 161.87 231.76 160.31 234.37 160.31C238.03 160.31 239.48 162.2 239.83 164.41H248.39C248.32 159.41 244.33 152.78 234.51 152.78C226.61 152.78 220.79 158.22 220.79 164.78C220.79 169.93 224 174.18 231.08 175.78L236.16 176.9C238.99 177.5 240.16 178.84 240.16 180.48C240.16 182.42 238.37 184.14 235.08 184.14C231.08 184.14 228.98 181.89 228.47 179.28H219.6C220.09 184.76 224.07 191.74 235.11 191.74C244.73 191.74 249.58 185.63 249.58 179.66C249.58 174.25 245.93 169.85 238.7 168.36V168.36ZM205.82 52.15H168.68V85H125.06V52.15H87.92V117.88H205.82V52.15ZM168.68 0H125.06V32.87H168.68V0Z" fill="white"/>
</svg>
